<svg viewBox="0 0 88 88" xmlns="http://www.w3.org/2000/svg">
  <g transform="matrix(1,0,0,1,44,66.322998046875)">
    <path fill="#fff" d=" M8.319000244140625,-13.677000045776367 C8.319000244140625,-13.677000045776367 19.2189998626709,8.123000144958496 19.2189998626709,8.123000144958496 C13.659000396728516,11.642999649047852 7.068999767303467,13.67300033569336 -0.0010000000474974513,13.67300033569336 C-7.071000099182129,13.67300033569336 -13.66100025177002,11.642999649047852 -19.22100067138672,8.123000144958496 C-19.22100067138672,8.123000144958496 -8.321000099182129,-13.677000045776367 -8.321000099182129,-13.677000045776367 C-6.160999774932861,-11.597000122070312 -3.2309999465942383,-10.32699966430664 -0.0010000000474974513,-10.32699966430664 C3.2290000915527344,-10.32699966430664 6.169000148773193,-11.597000122070312 8.319000244140625,-13.677000045776367z"></path>
  </g>
  <g transform="matrix(1,0,0,1,64.68399810791016,27.89699935913086)">
    <path fill="#fff" d=" M15.314000129699707,16.10700035095215 C15.314000129699707,16.10700035095215 -8.685999870300293,16.10700035095215 -8.685999870300293,16.10700035095215 C-8.685999870300293,11.406999588012695 -11.38599967956543,7.336999893188477 -15.315999984741211,5.367000102996826 C-15.315999984741211,5.367000102996826 -4.576000213623047,-16.10300064086914 -4.576000213623047,-16.10300064086914 C7.214000225067139,-10.192999839782715 15.314000129699707,2.006999969482422 15.314000129699707,16.10700035095215z"></path>
  </g>
  <g transform="matrix(1,0,0,1,23.31599998474121,27.89699935913086)">
    <path fill="#fff" d=" M4.584000110626221,-16.10300064086914 C4.584000110626221,-16.10300064086914 15.314000129699707,5.367000102996826 15.314000129699707,5.367000102996826 C11.383999824523926,7.336999893188477 8.684000015258789,11.406999588012695 8.684000015258789,16.10700035095215 C8.684000015258789,16.10700035095215 -15.315999984741211,16.10700035095215 -15.315999984741211,16.10700035095215 C-15.315999984741211,2.006999969482422 -7.216000080108643,-10.192999839782715 4.584000110626221,-16.10300064086914z"></path>
  </g>
  <g transform="matrix(1,0,0,1,44,44)">
    <path fill="#fff" d="M0,-4 C2.140000104904175,-4 3.890000104904175,-2.319999933242798 4,-0.20000000298023224 C4,-0.20000000298023224 4,0 4,0 C4,0 4,0.20000000298023224 4,0.20000000298023224 C3.890000104904175,2.319999933242798 2.140000104904175,4 0,4 C-2.2100000381469727,4 -4,2.2100000381469727 -4,0 C-4,-2.2100000381469727 -2.2100000381469727,-4 0,-4z"></path>
  </g>
</svg>