<svg xmlns="http://www.w3.org/2000/svg" viewBox="0 0 88 88">
  <g transform="matrix(1,0,0,1,41,41)">
    <path fill="rgb(255,255,255)" d=" M26,-28 C30.420000076293945,-28 34,-24.420000076293945 34,-20 C34,-20 34,4 34,4 C34,4 26,4 26,4 C26,4 26,-16.799999237060547 26,-16.799999237060547 C26,-18.56999969482422 24.56999969482422,-20 22.799999237060547,-20 C22.799999237060547,-20 -22.799999237060547,-20 -22.799999237060547,-20 C-24.510000228881836,-20 -25.899999618530273,-18.65999984741211 -25.989999771118164,-16.979999542236328 C-25.989999771118164,-16.979999542236328 -26,-16.799999237060547 -26,-16.799999237060547 C-26,-16.799999237060547 -26,16.799999237060547 -26,16.799999237060547 C-26,18.510000228881836 -24.65999984741211,19.899999618530273 -22.979999542236328,19.989999771118164 C-22.979999542236328,19.989999771118164 -22.799999237060547,20 -22.799999237060547,20 C-22.799999237060547,20 2,20 2,20 C2,20 2,28 2,28 C2,28 -26,28 -26,28 C-30.420000076293945,28 -34,24.420000076293945 -34,20 C-34,20 -34,-20 -34,-20 C-34,-24.420000076293945 -30.420000076293945,-28 -26,-28 C-26,-28 26,-28 26,-28z"></path>
  </g>
  <g transform="matrix(1,0,0,1,67,65)">
    <path fill="rgb(255,255,255)" d=" M16,-8 C16,-8 16,8 16,8 C16,10.208999633789062 14.208999633789062,12 12,12 C12,12 -12,12 -12,12 C-14.208999633789062,12 -16,10.208999633789062 -16,8 C-16,8 -16,-8 -16,-8 C-16,-10.208999633789062 -14.208999633789062,-12 -12,-12 C-12,-12 12,-12 12,-12 C14.208999633789062,-12 16,-10.208999633789062 16,-8z"></path>
  </g>
</svg>