<svg viewBox="0 0 18 18" xmlns="http://www.w3.org/2000/svg">
  <g transform="matrix(1.333299994468689,0,0,1.333299994468689,0,0)">
    <path fill="rgb(51,51,51)" d=" M4.099999904632568,0.5199999809265137 C4.099999904632568,0.5199999809265137 5.570000171661377,2.0799999237060547 5.570000171661377,2.0799999237060547 C5.809999942779541,2.3399999141693115 5.78000020980835,2.759999990463257 5.5,3.009999990463257 C5.21999979019165,3.2699999809265137 4.789999961853027,3.2699999809265137 4.550000190734863,3.009999990463257 C4.550000190734863,3.009999990463257 3.0799999237060547,1.4500000476837158 3.0799999237060547,1.4500000476837158 C2.8299999237060547,1.190000057220459 2.869999885559082,0.7699999809265137 3.1500000953674316,0.5099999904632568 C3.430000066757202,0.25999999046325684 3.8499999046325684,0.25999999046325684 4.099999904632568,0.5199999809265137 C4.099999904632568,0.5199999809265137 4.099999904632568,0.5199999809265137 4.099999904632568,0.5199999809265137z"></path>
    <path fill="rgb(51,51,51)" d=" M10.5,1.4199999570846558 C10.5,1.4199999570846558 9.069999694824219,3.0399999618530273 9.069999694824219,3.0399999618530273 C8.829999923706055,3.309999942779541 8.369999885559082,3.309999942779541 8.039999961853027,3.0399999618530273 C7.710000038146973,2.7699999809265137 7.639999866485596,2.3399999141693115 7.869999885559082,2.069999933242798 C7.869999885559082,2.069999933242798 9.300000190734863,0.44999998807907104 9.300000190734863,0.44999998807907104 C9.529999732971191,0.18000000715255737 10,0.18000000715255737 10.329999923706055,0.44999998807907104 C10.65999984741211,0.7200000286102295 10.739999771118164,1.149999976158142 10.5,1.4199999570846558 C10.5,1.4199999570846558 10.5,1.4199999570846558 10.5,1.4199999570846558z"></path>
    <path fill="rgb(255,255,255)" d=" M11.989999771118164,4.880000114440918 C11.989999771118164,4.880000114440918 11.989999771118164,9.380000114440918 11.989999771118164,9.380000114440918 C11.989999771118164,10.420000076293945 11.140000343322754,11.25 10.109999656677246,11.25 C10.109999656677246,11.25 3.359999895095825,11.25 3.359999895095825,11.25 C2.319999933242798,11.25 1.4900000095367432,10.420000076293945 1.4900000095367432,9.380000114440918 C1.4900000095367432,9.380000114440918 1.4900000095367432,4.880000114440918 1.4900000095367432,4.880000114440918 C1.4900000095367432,3.8399999141693115 2.319999933242798,3 3.359999895095825,3 C3.359999895095825,3 10.109999656677246,3 10.109999656677246,3 C11.140000343322754,3 11.989999771118164,3.8399999141693115 11.989999771118164,4.880000114440918 C11.989999771118164,4.880000114440918 11.989999771118164,4.880000114440918 11.989999771118164,4.880000114440918z"></path>
    <g transform="matrix(0.75,0,0,0.75,6.739999771118164,7.130000114440918)"><path stroke-linecap="butt" stroke-linejoin="miter" fill-opacity="0" stroke-miterlimit="4" stroke="rgb(51,51,51)" stroke-opacity="1" stroke-width="1.5" d=" M7,-3 C7,-3 7,3 7,3 C7,4.380000114440918 5.880000114440918,5.5 4.5,5.5 C4.5,5.5 -4.5,5.5 -4.5,5.5 C-5.880000114440918,5.5 -7,4.380000114440918 -7,3 C-7,3 -7,-3 -7,-3 C-7,-4.380000114440918 -5.880000114440918,-5.5 -4.5,-5.5 C-4.5,-5.5 4.5,-5.5 4.5,-5.5 C5.880000114440918,-5.5 7,-4.380000114440918 7,-3 C7,-3 7,-3 7,-3z"></path></g>
    <path fill="rgb(51,51,51)" d=" M5.440000057220459,6.260000228881836 C5.440000057220459,6.260000228881836 5.440000057220459,7.949999809265137 5.440000057220459,7.949999809265137 C5.440000057220459,8.3100004196167 5.139999866485596,8.600000381469727 4.78000020980835,8.600000381469727 C4.420000076293945,8.600000381469727 4.119999885559082,8.3100004196167 4.119999885559082,7.949999809265137 C4.119999885559082,7.949999809265137 4.119999885559082,6.260000228881836 4.119999885559082,6.260000228881836 C4.119999885559082,5.900000095367432 4.420000076293945,5.599999904632568 4.78000020980835,5.599999904632568 C5.139999866485596,5.599999904632568 5.440000057220459,5.900000095367432 5.440000057220459,6.260000228881836 C5.440000057220459,6.260000228881836 5.440000057220459,6.260000228881836 5.440000057220459,6.260000228881836z"></path>
    <path fill="rgb(51,51,51)" d=" M9.289999961853027,6.28000020980835 C9.289999961853027,6.28000020980835 9.289999961853027,7.929999828338623 9.289999961853027,7.929999828338623 C9.289999961853027,8.3100004196167 8.979999542236328,8.600000381469727 8.609999656677246,8.600000381469727 C8.239999771118164,8.600000381469727 7.940000057220459,8.3100004196167 7.940000057220459,7.929999828338623 C7.940000057220459,7.929999828338623 7.940000057220459,6.28000020980835 7.940000057220459,6.28000020980835 C7.940000057220459,5.900000095367432 8.239999771118164,5.599999904632568 8.609999656677246,5.599999904632568 C8.979999542236328,5.599999904632568 9.289999961853027,5.900000095367432 9.289999961853027,6.28000020980835 C9.289999961853027,6.28000020980835 9.289999961853027,6.28000020980835 9.289999961853027,6.28000020980835z"></path>
  </g>
</svg>